<svg xmlns="http://www.w3.org/2000/svg" width="20" height="20" viewBox="0 0 20 20">
    <defs>
        <style>
            .prefix__cls-2{fill:#fff}
        </style>
    </defs>
    <g id="prefix__그룹_75" data-name="그룹 75" transform="translate(-1776 -835)">
        <path id="prefix__사각형_124" d="M0 0H20V20H0z" data-name="사각형 124" transform="translate(1776 835)" style="fill:#e60000;opacity:0"/>
        <g id="prefix__그룹_5" data-name="그룹 5" transform="translate(1777 836)">
            <g id="prefix___00C73C_네이버톡톡" data-name="#00C73C_네이버톡톡">
                <path id="prefix__패스_1" d="M-.007 8.888V2.166A2.132 2.132 0 0 1 2.063.1h11.908a2.04 2.04 0 0 1 1.284.432c.644.5 1.288.994 1.919 1.5a2.162 2.162 0 0 1 .813 1.781v8.986a2.159 2.159 0 0 1-1.85 2.213 2.52 2.52 0 0 1-.471.026H8.205a4.441 4.441 0 0 0-2.412.631 7.657 7.657 0 0 0-1.145.908c-.359.333-.709.761-1.063 1.137a.991.991 0 0 1-1.461.108L.356 16.434a.916.916 0 0 1-.367-.765Q0 12.276-.007 8.888zm.773.012v6.548c0 .125.035.307.117.359.156.1.251-.078.346-.177.32-.333.631-.674.947-1.011a5.51 5.51 0 0 1 4.21-1.815h7.452a1.406 1.406 0 0 0 1.5-1.483V2.356A1.408 1.408 0 0 0 13.863.87H2.236a1.712 1.712 0 0 0-.743.182 1.393 1.393 0 0 0-.73 1.387C.766 4.6.762 6.748.766 8.9z" class="prefix__cls-2" data-name="패스 1" transform="translate(.012 -.096)"/>
                <path id="prefix__패스_2" d="M88.058 106.593v-1.124a.981.981 0 0 1 .947-.981.947.947 0 0 1 .986.89c.026.817.022 1.638 0 2.459a.946.946 0 0 1-.981.843 1 1 0 0 1-.942-.921c-.015-.388-.01-.777-.01-1.166z" class="prefix__cls-2" data-name="패스 2" transform="translate(-84.249 -99.975)"/>
                <path id="prefix__패스_3" d="M240 106.585v-1.145a.964.964 0 0 1 1.928-.013c.009.778.009 1.552 0 2.33a.967.967 0 0 1-1.932-.009c.004-.385.004-.774.004-1.163z" class="prefix__cls-2" data-name="패스 3" transform="translate(-229.626 -99.984)"/>
            </g>
        </g>
    </g>
</svg>
